<svg id="Слой_1" data-name="Слой 1" xmlns="http://www.w3.org/2000/svg" viewBox="0 0 185.04 185.04"><defs><style>.cls-1,.cls-5{fill:none;stroke:#a7924a;stroke-miterlimit:10;}.cls-1{stroke-width:3px;}.cls-2{font-size:29.6px;font-family:GoudyOldStyleT-Regular, Goudy Old Style;}.cls-2,.cls-4,.cls-6{fill:#fff;}.cls-3{letter-spacing:0.02em;}.cls-4{font-size:18px;font-family:Garamond;}</style></defs><circle class="cls-1" cx="92.52" cy="92.52" r="91.02"/><text class="cls-2" transform="translate(18.57 81.64)">FRAN<tspan class="cls-3" x="76.4" y="0">T</tspan><tspan x="94.85" y="0">SUZ</tspan></text><text class="cls-4" transform="translate(42.69 51.33)">АКАДЕМИЯ</text><line class="cls-5" x1="30.19" y1="57.2" x2="154.85" y2="57.2"/><path class="cls-6" d="M110.07,144.7l-50-11.51a3.91,3.91,0,0,1,.14-5.52l47-11.21c5-1,11.22-1.38,15.66-.3l47.67,12a3.92,3.92,0,0,1-.13,5.52l-48.47,10.85A23,23,0,0,1,110.07,144.7Z" transform="translate(-22.77 -18.78)"/><path class="cls-6" d="M116.22,148.87c8.58,0,32.46-6.87,32.46-6.87s.46,16.27-.89,20.69c-.87,2.87-15.08,6.57-32.13,7h-.19c-17-.44-31.26-4.14-32.13-7C82,158.27,82.45,142,82.45,142s24.88,6.9,33.46,6.87Z" transform="translate(-22.77 -18.78)"/><rect class="cls-6" x="45.65" y="115.33" width="1.37" height="19.61"/><circle class="cls-6" cx="46.34" cy="134.92" r="2.38"/><path class="cls-6" d="M73,168.16a3.74,3.74,0,0,1-7.45,0c0-1.9,1.55-13.75,3.61-13.75S73,166.26,73,168.16Z" transform="translate(-22.77 -18.78)"/></svg>